<svg id="Fav_icon" data-name="Fav icon" xmlns="http://www.w3.org/2000/svg" viewBox="0 0 108.04 74.95"><defs><style>.cls-1{fill:#3e4d5c;}.cls-2{fill:#0c8ccb;}</style></defs><g id="a"><path class="cls-1" d="M24.73,38.88a20,20,0,0,1,12.94-4.33,2.15,2.15,0,0,0,1.55-.69,2.19,2.19,0,0,0,0-3.21,2.16,2.16,0,0,0-1.55-.7,24.1,24.1,0,0,0-16.2,5.72Q14.8,41.4,14.79,49.41T21.47,63.1a24.21,24.21,0,0,0,16.2,5.66,2.21,2.21,0,0,0,1.55-.64,2.18,2.18,0,0,0,0-3.2,2.23,2.23,0,0,0-1.55-.65,21.53,21.53,0,0,1-9.25-2,16.49,16.49,0,0,1-6.63-5.4,12.77,12.77,0,0,1-2.4-7.49Q19.39,43.22,24.73,38.88ZM67.18,24.5a2.25,2.25,0,0,0-3.85,1.61v9.83a27.87,27.87,0,0,0-6.58-6.36,30.94,30.94,0,0,0-8.87-4.22,35.14,35.14,0,0,0-10.21-1.5,32.1,32.1,0,0,0-21.38,7.48Q7.41,38.82,7.41,49.41t8.88,18.07A32,32,0,0,0,37.67,75a33.38,33.38,0,0,0,14.75-3.31,28.78,28.78,0,0,0,10.91-8.87v9.94A2.19,2.19,0,0,0,65.57,75a2.17,2.17,0,0,0,1.61-.64,2.15,2.15,0,0,0,.64-1.6V26.11A2.17,2.17,0,0,0,67.18,24.5ZM55.79,64.27a27.63,27.63,0,0,1-18.17,6.2,27.66,27.66,0,0,1-18.18-6.2q-7.53-6.19-7.54-14.91T19.44,34.5a27.84,27.84,0,0,1,18.18-6.15A27.81,27.81,0,0,1,55.79,34.5q7.55,6.15,7.54,14.86T55.79,64.27Z" transform="translate(-7.41 -23.86)"/></g><g id="p"><path class="cls-2" d="M109.36,30.06A20,20,0,0,0,94.71,24H76.85a2.16,2.16,0,0,0-1.55.69,2.29,2.29,0,0,0-.69,1.66v68H71.83v-68a2.37,2.37,0,0,0-.64-1.66,2.21,2.21,0,0,0-3.21,0,2.37,2.37,0,0,0-.64,1.66V96.56a2.19,2.19,0,0,0,2.24,2.25h7.27a2.38,2.38,0,0,0,1.66-.64,2.13,2.13,0,0,0,.7-1.61v-31h15.5a20,20,0,0,0,14.65-6.1,20,20,0,0,0,6.09-14.7A20,20,0,0,0,109.36,30.06ZM106.2,56.2A15.66,15.66,0,0,1,94.71,61H79.21V28.56h15.5A16.25,16.25,0,0,1,111,44.76,15.6,15.6,0,0,1,106.2,56.2Z" transform="translate(-7.41 -23.86)"/></g></svg>