<?xml version="1.0" standalone="no"?>
<!DOCTYPE svg PUBLIC "-//W3C//DTD SVG 20010904//EN"
 "http://www.w3.org/TR/2001/REC-SVG-20010904/DTD/svg10.dtd">
<svg version="1.0" xmlns="http://www.w3.org/2000/svg"
 width="864.000000pt" height="864.000000pt" viewBox="0 0 864.000000 864.000000"
 preserveAspectRatio="xMidYMid meet">
<metadata>
Created by potrace 1.11, written by Peter Selinger 2001-2013
</metadata>
<g transform="translate(0.000000,864.000000) scale(0.100000,-0.100000)"
fill="#000000" stroke="none">
<path d="M2148 7304 c-3 -2 -30 -7 -59 -9 -30 -3 -67 -7 -84 -10 -16 -2 -48
-7 -70 -10 -69 -10 -279 -63 -372 -94 -239 -78 -484 -203 -682 -346 -46 -33
-93 -67 -105 -75 -11 -8 -26 -19 -32 -25 -6 -5 -46 -41 -89 -80 -109 -98 -190
-185 -274 -295 -128 -169 -219 -337 -279 -515 -26 -76 -52 -178 -58 -222 -2
-20 -6 -38 -8 -42 -18 -29 -28 -456 -12 -551 3 -19 8 -51 11 -70 2 -19 7 -46
10 -60 3 -14 8 -36 11 -50 9 -39 10 -42 24 -90 7 -25 14 -49 16 -55 17 -79
178 -402 206 -413 4 -2 8 -8 8 -13 0 -24 155 -213 261 -318 65 -65 161 -150
227 -200 26 -20 49 -39 50 -43 2 -5 8 -8 13 -8 5 0 32 -18 61 -40 29 -22 58
-40 64 -40 6 0 18 -8 28 -19 9 -10 34 -26 56 -36 22 -10 40 -22 40 -27 0 -4 7
-8 16 -8 9 0 29 -9 45 -21 16 -11 36 -22 43 -23 7 -1 25 -9 39 -19 15 -9 29
-17 33 -17 3 0 22 -7 42 -16 21 -9 55 -25 77 -34 118 -53 405 -133 545 -153
19 -3 35 -6 35 -7 0 -1 16 -3 35 -5 230 -26 581 -26 760 -1 133 19 144 21 195
33 17 3 39 7 50 8 78 8 395 117 554 192 62 29 115 53 116 53 2 0 33 18 69 40
36 22 70 40 76 40 5 0 10 4 10 9 0 5 8 12 18 16 16 5 104 64 139 95 7 5 15 10
18 10 3 0 17 10 29 23 13 12 39 33 57 47 50 37 227 215 289 290 29 36 59 71
65 78 8 9 11 -97 11 -401 0 -464 -1 -459 77 -521 33 -26 45 -30 102 -30 49 0
71 5 92 20 15 11 33 23 39 27 7 4 10 -261 9 -891 0 -956 -1 -947 48 -1004 48
-55 69 -58 429 -58 308 0 331 1 366 20 53 28 67 41 88 80 17 34 18 87 19 1295
l0 1260 670 1 c671 1 727 3 883 29 58 9 204 48 251 67 14 6 35 14 46 18 55 20
208 100 273 142 257 166 492 430 616 693 29 61 75 177 81 205 2 8 13 47 24 86
11 39 22 88 25 110 2 21 5 39 6 39 14 0 19 435 7 515 -18 115 -60 284 -86 345
-5 11 -17 38 -26 60 -29 68 -93 190 -120 231 -14 22 -31 48 -38 58 -44 68
-121 159 -204 240 -99 96 -125 119 -178 159 -27 20 -54 40 -60 45 -84 67 -380
203 -493 227 -9 2 -39 9 -67 15 -27 7 -61 14 -75 15 -14 2 -36 7 -50 11 -40
12 -1677 16 -1720 4 -45 -12 -97 -60 -117 -108 -14 -33 -16 -336 -16 -2769 l0
-2733 -21 -1 c-25 -1 -189 -1 -196 0 -3 1 -5 1235 -5 2744 l0 2742 -23 40
c-60 105 -211 124 -285 35 l-24 -28 -24 30 c-53 66 -160 89 -226 48 -43 -26
-73 -57 -73 -75 0 -8 -4 -15 -8 -15 -13 0 -14 -47 -15 -457 -1 -216 -2 -393
-2 -393 -1 0 -24 28 -51 63 -65 84 -263 281 -350 350 -106 83 -321 221 -399
256 -11 5 -58 27 -105 48 -117 55 -329 130 -419 148 -9 2 -27 8 -41 13 -14 5
-28 10 -33 10 -6 0 -83 14 -97 17 -3 1 -25 5 -50 9 -25 5 -54 10 -65 12 -11 2
-38 6 -60 9 -22 3 -58 8 -80 11 -50 8 -570 15 -577 8z m474 -358 c64 -3 122
-8 130 -10 7 -3 31 -7 53 -10 169 -23 391 -83 525 -143 108 -49 245 -117 248
-125 2 -4 9 -8 17 -8 7 0 18 -7 25 -15 7 -8 16 -13 20 -10 4 2 15 -4 25 -15
10 -11 22 -20 27 -20 11 0 147 -101 223 -166 69 -58 111 -100 175 -170 78 -86
100 -114 100 -123 0 -5 4 -11 8 -13 16 -6 88 -123 134 -218 53 -109 110 -273
109 -315 0 -2 4 -19 9 -36 29 -100 32 -396 5 -534 -69 -355 -235 -632 -540
-900 -50 -44 -208 -161 -245 -182 -19 -11 -62 -37 -95 -57 -33 -20 -66 -36
-72 -36 -7 0 -13 -3 -13 -8 0 -4 -12 -12 -27 -19 -16 -6 -55 -24 -88 -38 -124
-55 -330 -123 -422 -140 -15 -2 -39 -7 -53 -10 -111 -25 -280 -39 -475 -39
-227 0 -354 11 -497 43 -21 5 -38 7 -38 5 0 -3 -9 0 -19 6 -11 5 -36 12 -56
16 -65 10 -292 92 -403 146 -401 194 -725 494 -896 833 -53 104 -110 275 -122
367 -2 16 -8 57 -14 92 -6 36 -8 134 -6 218 5 146 7 181 20 238 3 14 11 50 17
80 6 30 14 60 17 65 4 6 7 15 8 20 6 38 90 221 139 303 18 30 49 77 55 82 3 3
25 32 49 65 72 97 319 335 348 335 7 0 13 4 13 8 0 13 205 143 305 194 129 66
318 142 410 164 11 3 27 7 35 9 8 2 16 4 18 4 1 1 4 1 7 2 2 0 19 5 37 10 71
21 279 50 393 56 66 3 121 6 122 7 3 2 135 -2 255 -8z m4518 -20 c36 -5 68
-10 71 -12 3 -2 25 -6 49 -9 23 -3 46 -8 51 -11 5 -3 17 -7 26 -9 77 -15 280
-107 356 -161 26 -19 51 -34 56 -34 5 0 11 -3 13 -7 2 -5 19 -21 38 -37 74
-60 145 -133 219 -222 4 -6 25 -37 46 -70 21 -32 47 -72 58 -87 10 -16 20 -34
21 -40 2 -7 13 -34 26 -62 113 -245 143 -527 85 -805 -8 -36 -19 -79 -25 -95
-7 -17 -13 -38 -15 -48 -10 -45 -87 -201 -140 -282 -60 -90 -268 -315 -292
-315 -7 0 -13 -3 -13 -8 0 -8 -172 -124 -190 -128 -3 0 -36 -15 -75 -33 -38
-18 -77 -34 -85 -36 -8 -2 -16 -4 -17 -5 -2 -2 -6 -3 -10 -4 -5 -1 -34 -10
-66 -19 -32 -10 -74 -20 -95 -22 -20 -2 -58 -8 -84 -13 -26 -5 -351 -9 -723
-9 -616 -1 -675 1 -676 16 -1 9 -2 590 -3 1291 -1 1003 1 1276 11 1280 20 8
1312 4 1383 -4z"/>
<path d="M2337 6824 c-1 -1 -51 -4 -111 -8 -60 -4 -112 -8 -115 -10 -3 -2 -26
-7 -51 -10 -123 -17 -314 -72 -440 -128 -126 -56 -260 -128 -260 -140 0 -5 -6
-8 -14 -8 -7 0 -29 -12 -49 -27 -20 -16 -56 -42 -79 -60 -121 -89 -313 -282
-352 -351 -5 -10 -12 -19 -15 -22 -9 -7 -64 -96 -92 -150 -13 -25 -28 -48 -34
-52 -5 -4 -7 -8 -2 -8 4 0 -1 -17 -12 -38 -20 -39 -58 -148 -66 -191 -2 -12
-7 -31 -10 -41 -22 -69 -30 -160 -29 -325 0 -173 16 -282 60 -415 25 -74 83
-210 94 -220 3 -3 19 -27 35 -55 74 -130 226 -300 370 -416 171 -138 406 -268
585 -323 68 -22 74 -23 80 -24 3 0 17 -5 31 -10 14 -6 43 -13 63 -16 21 -4 42
-8 46 -11 4 -3 25 -7 46 -10 22 -4 46 -8 54 -10 38 -11 157 -19 281 -19 133
-1 136 0 172 26 80 62 103 141 65 220 -42 86 -90 107 -261 113 -110 4 -161 11
-302 41 -42 8 -227 65 -245 75 -8 4 -44 20 -80 36 -269 114 -529 360 -637 603
-39 87 -52 121 -56 145 -1 11 -5 25 -9 30 -3 6 -9 32 -12 58 -4 27 -9 59 -12
70 -6 32 -6 204 1 262 17 143 76 297 167 433 64 97 230 262 328 327 41 28 77
52 80 55 28 29 331 161 397 174 10 2 45 11 78 19 33 9 80 19 105 22 25 3 63 8
85 11 22 3 83 6 135 8 116 3 163 18 206 64 86 94 54 239 -64 289 -29 13 -145
25 -155 17z"/>
</g>
</svg>
