<?xml version="1.0" standalone="no"?>
<!DOCTYPE svg PUBLIC "-//W3C//DTD SVG 20010904//EN"
 "http://www.w3.org/TR/2001/REC-SVG-20010904/DTD/svg10.dtd">
<svg version="1.0" xmlns="http://www.w3.org/2000/svg"
 width="512.000000pt" height="512.000000pt" viewBox="0 0 512.000000 512.000000"
 preserveAspectRatio="xMidYMid meet">
<metadata>
Created by potrace 1.11, written by Peter Selinger 2001-2013
</metadata>
<g transform="translate(0.000000,512.000000) scale(0.100000,-0.100000)"
fill="#000000" stroke="none">
<path d="M1468 4125 c-2 -1 -33 -5 -70 -9 -82 -7 -181 -28 -270 -56 -37 -11
-70 -21 -73 -21 -11 -1 -174 -83 -220 -112 -186 -116 -374 -317 -440 -472 -10
-22 -21 -47 -25 -56 -5 -9 -19 -54 -32 -100 -19 -69 -23 -108 -23 -219 0 -74
3 -156 8 -182 25 -152 104 -320 209 -444 70 -83 260 -244 308 -262 8 -3 17 -9
20 -12 8 -11 171 -87 225 -105 199 -67 410 -91 630 -71 308 28 608 168 818
379 48 48 87 92 87 97 0 6 4 10 9 10 5 0 9 -91 9 -206 0 -217 6 -253 45 -272
43 -20 56 -21 89 -3 l34 17 0 -483 0 -483 27 -28 27 -27 183 -1 c189 -2 211 2
244 45 9 12 12 173 13 679 l0 662 378 2 c207 0 382 2 387 3 204 34 349 107
491 249 169 170 243 341 250 581 4 146 -14 252 -61 366 -73 173 -222 335 -395
432 -61 34 -179 75 -237 83 -26 3 -57 8 -68 10 -11 2 -182 4 -380 5 -549 0
-492 4 -526 -30 l-29 -29 0 -1436 0 -1436 -58 0 -59 0 0 1431 c0 1416 0 1430
-20 1457 -35 47 -99 54 -138 16 -15 -15 -18 -15 -41 7 -35 33 -100 31 -131 -6
-25 -29 -25 -23 -24 -310 l0 -160 -21 25 c-214 259 -512 419 -871 466 -45 6
-274 13 -279 9z m302 -199 c14 -3 50 -11 80 -17 207 -43 396 -145 550 -299
128 -127 198 -257 229 -425 11 -60 7 -250 -7 -285 -5 -14 -10 -29 -11 -35 -7
-58 -71 -184 -134 -265 -141 -181 -352 -316 -584 -375 -127 -32 -215 -42 -358
-39 -239 4 -441 64 -628 187 -297 195 -444 480 -405 787 28 215 145 401 353
555 141 106 302 173 490 205 97 17 362 20 425 6z m2340 -17 c126 -32 214 -82
311 -179 69 -68 94 -102 127 -170 52 -106 71 -180 73 -284 5 -199 -56 -351
-196 -492 -85 -86 -163 -136 -275 -176 -63 -22 -78 -23 -457 -26 l-393 -3 0
675 0 676 368 -1 c326 0 375 -3 442 -20z"/>
<path d="M1428 3865 c-2 -2 -23 -6 -48 -9 -231 -31 -495 -187 -621 -368 -13
-18 -26 -35 -29 -38 -14 -13 -60 -111 -79 -169 -87 -266 -11 -546 202 -752
174 -167 399 -259 673 -273 75 -4 119 19 132 67 11 42 6 60 -26 90 -23 22 -39
26 -112 31 -185 13 -300 51 -442 143 -122 80 -217 209 -253 343 -19 71 -19
190 0 263 68 261 349 462 674 483 103 7 132 18 155 62 12 23 12 33 1 65 -15
44 -12 40 -43 56 -18 10 -175 15 -184 6z"/>
</g>
</svg>
